<svg width="18" height="18" viewBox="0 0 18 18" fill="none" xmlns="http://www.w3.org/2000/svg">
<g clip-path="url(#clip0_51_611)">
<path d="M17.25 8.25H14.19C14.1316 7.83678 14.0235 7.43211 13.8682 7.04475L16.5135 5.51175C16.6019 5.46417 16.6799 5.39933 16.7427 5.32107C16.8056 5.24281 16.8522 5.15272 16.8796 5.05614C16.907 4.95956 16.9147 4.85846 16.9024 4.75883C16.89 4.6592 16.8577 4.56307 16.8075 4.47614C16.7573 4.38921 16.6901 4.31324 16.61 4.25275C16.5299 4.19226 16.4384 4.14846 16.3411 4.12397C16.2437 4.09948 16.1424 4.09478 16.0432 4.11016C15.944 4.12554 15.8489 4.16068 15.7635 4.2135L13.116 5.74875C12.8629 5.42904 12.5737 5.13962 12.2543 4.88625L13.7888 2.238C13.8812 2.06629 13.9031 1.86534 13.8498 1.67776C13.7965 1.49018 13.6723 1.33071 13.5035 1.23317C13.3346 1.13563 13.1344 1.10768 12.9453 1.15525C12.7562 1.20282 12.5931 1.32217 12.4905 1.488L10.9553 4.13175C10.5679 3.97629 10.1633 3.86826 9.75 3.81V0.75C9.75 0.551088 9.67098 0.360322 9.53033 0.21967C9.38968 0.0790176 9.19891 0 9 0C8.80109 0 8.61032 0.0790176 8.46967 0.21967C8.32902 0.360322 8.25 0.551088 8.25 0.75V3.81C7.83675 3.86826 7.43206 3.97629 7.04475 4.13175L5.51175 1.4865C5.40916 1.32067 5.24602 1.20132 5.05692 1.15375C4.86781 1.10618 4.66762 1.13413 4.49877 1.23167C4.32992 1.32921 4.20571 1.48868 4.15245 1.67626C4.0992 1.86384 4.1211 2.06479 4.2135 2.2365L5.748 4.88625C5.42851 5.13962 5.13934 5.42904 4.88625 5.74875L2.23875 4.2135C2.15337 4.16068 2.05826 4.12554 1.95905 4.11016C1.85984 4.09478 1.75855 4.09948 1.66119 4.12397C1.56383 4.14846 1.47237 4.19226 1.39225 4.25275C1.31213 4.31324 1.24496 4.38921 1.19474 4.47614C1.14452 4.56307 1.11227 4.6592 1.09989 4.75883C1.08751 4.85846 1.09526 4.95956 1.12267 5.05614C1.15009 5.15272 1.19662 5.24281 1.25951 5.32107C1.32239 5.39933 1.40034 5.46417 1.48875 5.51175L4.13175 7.04475C3.97646 7.43211 3.86843 7.83678 3.81 8.25H0.75C0.551088 8.25 0.360322 8.32902 0.21967 8.46967C0.0790176 8.61032 0 8.80109 0 9C0 9.19891 0.0790176 9.38968 0.21967 9.53033C0.360322 9.67098 0.551088 9.75 0.75 9.75H3.81C3.86843 10.1632 3.97646 10.5679 4.13175 10.9553L1.4865 12.4882C1.39809 12.5358 1.32014 12.6007 1.25725 12.6789C1.19437 12.7572 1.14784 12.8473 1.12042 12.9439C1.09301 13.0404 1.08526 13.1415 1.09764 13.2412C1.11002 13.3408 1.14227 13.4369 1.19249 13.5239C1.24271 13.6108 1.30988 13.6868 1.39 13.7473C1.47012 13.8077 1.56158 13.8515 1.65894 13.876C1.7563 13.9005 1.85759 13.9052 1.9568 13.8898C2.05601 13.8745 2.15112 13.8393 2.2365 13.7865L4.884 12.2512C5.13709 12.571 5.42626 12.8604 5.74575 13.1138L4.2135 15.762C4.1211 15.9337 4.0992 16.1347 4.15245 16.3222C4.20571 16.5098 4.32992 16.6693 4.49877 16.7668C4.66762 16.8644 4.86781 16.8923 5.05692 16.8448C5.24602 16.7972 5.40916 16.6778 5.51175 16.512L7.04475 13.8668C7.4321 14.0224 7.83675 14.1309 8.25 14.19V17.25C8.25 17.4489 8.32902 17.6397 8.46967 17.7803C8.61032 17.921 8.80109 18 9 18C9.19891 18 9.38968 17.921 9.53033 17.7803C9.67098 17.6397 9.75 17.4489 9.75 17.25V14.19C10.1632 14.1314 10.5678 14.0234 10.9553 13.8682L12.4882 16.5135C12.5908 16.6793 12.754 16.7987 12.9431 16.8462C13.1322 16.8938 13.3324 16.8659 13.5012 16.7683C13.6701 16.6708 13.7943 16.5113 13.8475 16.3237C13.9008 16.1362 13.8789 15.9352 13.7865 15.7635L12.252 13.1152C12.5715 12.8619 12.8607 12.5725 13.1138 12.2527L15.7612 13.788C15.8466 13.8408 15.9417 13.876 16.041 13.8913C16.1402 13.9067 16.2415 13.902 16.3388 13.8775C16.4362 13.853 16.5276 13.8092 16.6078 13.7488C16.6879 13.6883 16.755 13.6123 16.8053 13.5254C16.8555 13.4384 16.8877 13.3423 16.9001 13.2427C16.9125 13.143 16.9047 13.0419 16.8773 12.9454C16.8499 12.8488 16.8034 12.7587 16.7405 12.6804C16.6776 12.6022 16.5997 12.5373 16.5112 12.4897L13.866 10.9568C14.0222 10.569 14.131 10.1638 14.19 9.75H17.25C17.4489 9.75 17.6397 9.67098 17.7803 9.53033C17.921 9.38968 18 9.19891 18 9C18 8.80109 17.921 8.61032 17.7803 8.46967C17.6397 8.32902 17.4489 8.25 17.25 8.25Z" fill="white"/>
</g>
<defs>
<clipPath id="clip0_51_611">
<rect width="18" height="18" fill="white"/>
</clipPath>
</defs>
</svg>
