<svg width="25" height="26" viewBox="0 0 25 26" fill="none" xmlns="http://www.w3.org/2000/svg">
<g clip-path="url(#clip0_40_754)">
<path d="M12.1086 0.532471H12.2493C12.2509 0.766302 12.2505 0.942312 12.2481 1.0605C12.2269 2.06672 12.192 2.98244 12.1435 3.80767C12.0949 4.63163 12.0039 5.45068 11.8703 6.26481C11.6878 7.37759 11.3717 8.49055 10.77 9.45398C9.7999 11.0072 8.29938 11.8797 6.55508 12.291C5.64123 12.5066 4.69337 12.6225 3.77244 12.6922C2.98204 12.7522 2.16661 12.7939 1.32614 12.8173C0.884151 12.8296 0.442104 12.8405 0 12.8501V12.5654C0.143301 9.98079 0.982044 7.57153 2.53263 5.51024C4.81043 2.4824 8.33702 0.667947 12.1086 0.532471Z" fill="#363638"/>
<path d="M13.0327 0.532471H13.1011C13.6736 0.581041 14.2637 0.63707 14.8278 0.746527C19.8557 1.72244 23.7784 5.63548 24.7677 10.68C24.8851 11.2791 24.9626 11.9155 25.0001 12.5892V12.8497C23.5287 12.8156 22.0577 12.764 20.5935 12.6076C19.1406 12.4522 17.6881 12.1588 16.4224 11.3973C15.896 11.0806 15.4077 10.6356 15.0008 10.1773C13.8723 8.90669 13.4483 7.12138 13.2496 5.47502C13.1708 4.82245 13.1149 4.1679 13.0817 3.51139C13.0377 2.63678 13.0027 1.76408 12.9978 0.888075C12.9971 0.76318 13.0088 0.644645 13.0327 0.532471Z" fill="#363638"/>
<path d="M12.2597 25.6502H12.0028C11.2994 25.6087 10.5761 25.5293 9.88829 25.3759C7.82182 24.9155 5.86015 23.9584 4.27227 22.5417C2.15573 20.653 0.731872 18.1974 0.212189 15.3937C0.108943 14.8367 0.0382136 14.2596 0 13.6623V13.5837C1.89451 13.6177 3.80784 13.6507 5.68025 13.9584C6.41488 14.0792 7.15867 14.2646 7.85929 14.5454C8.86078 14.9471 9.69769 15.5658 10.37 16.4017C11.1544 17.3769 11.5665 18.5625 11.8023 19.7789C12.0499 21.0556 12.1452 22.3875 12.1958 23.6737C12.2217 24.3323 12.243 24.9911 12.2597 25.6502Z" fill="#363638"/>
<path d="M24.9999 13.6116V13.6737C24.9468 14.3899 24.8617 15.0425 24.7444 15.6316C23.9269 19.7368 20.9488 23.271 17.0638 24.785C16.178 25.1302 15.2966 25.3693 14.4198 25.5023C14.0939 25.5517 13.6536 25.601 13.0988 25.6503H13.0353C13.0132 25.5618 13.002 25.4632 13.0016 25.3544C13.0007 25.0674 13.0035 24.8115 13.0099 24.5866C13.0484 23.2374 13.122 21.8883 13.3088 20.5507C13.4312 19.6742 13.6168 18.8256 13.9398 18.0109C14.346 16.9864 14.9729 16.1307 15.8204 15.4437C16.6399 14.7795 17.6467 14.3787 18.6634 14.1398C20.1655 13.7872 21.6874 13.6897 23.268 13.6276C23.9031 13.6026 24.4803 13.5973 24.9999 13.6116Z" fill="#363638"/>
</g>
<defs>
<clipPath id="clip0_40_754">
<path d="M0 13.0325C0 6.12892 5.59644 0.532471 12.5 0.532471C19.4036 0.532471 25 6.12891 25 13.0325V25.6503H0V13.0325Z" fill="white"/>
</clipPath>
</defs>
</svg>
