<svg width="25" height="26" viewBox="0 0 25 26" fill="none" xmlns="http://www.w3.org/2000/svg">
<g clip-path="url(#clip0_40_769)">
<path d="M8.13035 9.47351C8.02683 9.20614 7.74168 8.93141 7.44627 8.91817C6.9072 8.89429 6.15021 8.88677 5.17527 8.8956C5.03513 8.89658 4.90086 8.88775 4.80076 8.98587C4.63572 9.14874 4.68064 9.38029 4.77244 9.57849C5.71238 11.6061 6.61961 13.5046 7.99461 15.1966C9.34324 16.8558 11.1636 17.6937 13.3022 17.4847C13.7383 17.442 13.8271 17.155 13.8833 16.7444C13.957 16.2072 14.0854 14.8282 15.02 15.7672C15.2479 15.9961 15.5724 16.3403 15.9936 16.7999C16.4687 17.3184 16.8662 17.5151 17.5688 17.5348C18.2342 17.5537 18.8996 17.5578 19.5649 17.547C20.062 17.5387 20.5298 17.1423 20.227 16.6174C19.6684 15.6494 18.7495 14.8204 17.9443 14.0065C17.5234 13.5812 17.9868 13.0621 18.2646 12.6844C18.664 12.1405 19.0618 11.5954 19.458 11.0493C19.8115 10.5626 20.1264 10.0725 20.2715 9.52011C20.3935 9.05553 20.083 8.91669 19.6855 8.91669C18.8288 8.91571 17.9715 8.91212 17.1137 8.9059C16.8126 8.90361 16.6129 9.03411 16.5146 9.29739C16.0901 10.4365 15.5166 11.4455 14.7939 12.3243C14.6196 12.5357 14.3183 12.9601 14.084 12.809C13.8266 12.6432 13.8227 11.8538 13.8315 11.5806C13.8527 10.9258 13.8677 10.2707 13.8764 9.61528C13.8901 8.60714 13.3911 8.57672 12.561 8.5517C12.1421 8.53862 11.723 8.53257 11.3037 8.53355C10.7715 8.53404 10.209 8.5311 9.89597 8.96036C9.67771 9.2601 10.2148 9.28708 10.3623 9.38324C10.7319 9.6246 10.727 9.9219 10.7553 10.3943C10.8003 11.1537 10.8506 12.08 10.6074 12.6932C10.438 13.1195 9.99656 12.6907 9.8325 12.4803C9.1183 11.5622 8.55092 10.56 8.13035 9.47351Z" stroke="white" stroke-width="2"/>
<path d="M12.1743 0.0612793H12.8315C19.5518 0.290381 24.8423 5.64558 25 12.4029V12.8321C24.8203 19.6267 19.4878 25.0555 12.6792 25.1791H12.1929C5.45801 24.9676 0.216309 19.6316 0 12.8993V12.3592C0.204102 5.64116 5.43018 0.276645 12.1743 0.0612793ZM8.13037 9.47359C8.02686 9.20622 7.7417 8.93149 7.44629 8.91825C6.90723 8.89437 6.15023 8.88685 5.17529 8.89568C5.03516 8.89666 4.90088 8.88783 4.80078 8.98595C4.63574 9.14882 4.68066 9.38038 4.77246 9.57857C5.7124 11.6061 6.61963 13.5047 7.99463 15.1967C9.34326 16.8559 11.1636 17.6938 13.3022 17.4848C13.7383 17.4421 13.8271 17.1551 13.8833 16.7445C13.957 16.2073 14.0854 14.8283 15.02 15.7673C15.2479 15.9962 15.5724 16.3404 15.9937 16.7999C16.4688 17.3185 16.8662 17.5152 17.5688 17.5348C18.2342 17.5538 18.8996 17.5579 19.5649 17.5471C20.062 17.5388 20.5298 17.1424 20.2271 16.6174C19.6685 15.6495 18.7495 14.8204 17.9443 14.0066C17.5234 13.5812 17.9868 13.0622 18.2646 12.6844C18.6641 12.1406 19.0618 11.5955 19.458 11.0493C19.8115 10.5627 20.1265 10.0726 20.2715 9.52019C20.3936 9.05561 20.083 8.91678 19.6855 8.91678C18.8288 8.9158 17.9715 8.9122 17.1138 8.90598C16.8127 8.9037 16.613 9.03419 16.5146 9.29747C16.0902 10.4366 15.5166 11.4456 14.7939 12.3244C14.6196 12.5358 14.3184 12.9602 14.084 12.8091C13.8267 12.6432 13.8228 11.8539 13.8315 11.5806C13.8527 10.9259 13.8677 10.2708 13.8765 9.61537C13.8901 8.60722 13.3911 8.5768 12.561 8.55178C12.1421 8.5387 11.723 8.53265 11.3037 8.53363C10.7715 8.53412 10.209 8.53118 9.896 8.96044C9.67773 9.26018 10.2148 9.28717 10.3623 9.38332C10.7319 9.62469 10.7271 9.92198 10.7554 10.3944C10.8003 11.1538 10.8506 12.0801 10.6074 12.6933C10.438 13.1196 9.99658 12.6908 9.83252 12.4804C9.11833 11.5623 8.55094 10.5601 8.13037 9.47359Z" fill="#3E64FF"/>
</g>
<defs>
<clipPath id="clip0_40_769">
<path d="M0 12.5613C0 5.65772 5.59644 0.0612793 12.5 0.0612793C19.4036 0.0612793 25 5.65772 25 12.5613V25.1791H0V12.5613Z" fill="white"/>
</clipPath>
</defs>
</svg>
