<svg width="20" height="20" viewBox="0 0 20 20" fill="none" xmlns="http://www.w3.org/2000/svg">
<path d="M19.768 17.674L15.0425 12.9485C16.3303 11.3736 16.9634 9.36391 16.811 7.33524C16.6586 5.30657 15.7322 3.41409 14.2236 2.04925C12.715 0.684411 10.7395 -0.0483702 8.70575 0.00247997C6.672 0.0533302 4.73559 0.883921 3.29706 2.32245C1.85853 3.76098 1.02794 5.69739 0.977089 7.73114C0.926239 9.76489 1.65902 11.7404 3.02386 13.249C4.3887 14.7576 6.28118 15.684 8.30985 15.8364C10.3385 15.9888 12.3482 15.3557 13.9231 14.0679L18.6486 18.7934C18.7979 18.9376 18.9979 19.0174 19.2054 19.0156C19.413 19.0138 19.6116 18.9305 19.7584 18.7837C19.9051 18.637 19.9884 18.4384 19.9902 18.2308C19.992 18.0233 19.9122 17.8233 19.768 17.674ZM8.91662 14.2753C7.664 14.2753 6.43952 13.9039 5.398 13.208C4.35649 12.5121 3.54473 11.5229 3.06538 10.3657C2.58602 9.2084 2.4606 7.93498 2.70498 6.70643C2.94935 5.47789 3.55254 4.3494 4.43827 3.46366C5.32401 2.57793 6.4525 1.97474 7.68104 1.73037C8.90959 1.48599 10.183 1.61141 11.3403 2.09077C12.4975 2.57012 13.4867 3.38188 14.1826 4.4234C14.8785 5.46491 15.25 6.68939 15.25 7.94201C15.2481 9.62113 14.5802 11.2309 13.3929 12.4183C12.2056 13.6056 10.5957 14.2735 8.91662 14.2753Z" fill="#34C759"/>
</svg>
