<svg width="20" height="20" viewBox="0 0 20 20" fill="none" xmlns="http://www.w3.org/2000/svg">
<g clip-path="url(#clip0_40_305)">
<path d="M1.10563 10.3336L4.07229 12.5002L2.94563 15.9894C2.76355 16.5306 2.76125 17.1161 2.93905 17.6587C3.11686 18.2012 3.46525 18.6718 3.93229 19.0002C4.39134 19.3392 4.94762 19.5208 5.51826 19.518C6.08889 19.5151 6.64333 19.328 7.09896 18.9844L9.9998 16.8494L12.9015 18.9819C13.3597 19.319 13.913 19.502 14.4818 19.5048C15.0506 19.5076 15.6056 19.3299 16.0671 18.9973C16.5286 18.6648 16.8727 18.1945 17.05 17.654C17.2274 17.1135 17.2287 16.5307 17.054 15.9894L15.9273 12.5002L18.894 10.3336C19.3516 9.999 19.6918 9.52837 19.8659 8.98891C20.0401 8.44944 20.0393 7.86873 19.8637 7.32974C19.6881 6.79074 19.3467 6.32102 18.8881 5.98767C18.4296 5.65432 17.8775 5.47439 17.3106 5.47358H13.6665L12.5606 2.02691C12.3867 1.48438 12.045 1.01109 11.5848 0.675301C11.1245 0.339511 10.5695 0.158569 9.9998 0.158569C9.43007 0.158569 8.87507 0.339511 8.41482 0.675301C7.95457 1.01109 7.61286 1.48438 7.43896 2.02691L6.33313 5.47358H2.69229C2.12541 5.47439 1.57329 5.65432 1.11478 5.98767C0.656268 6.32102 0.314829 6.79074 0.139229 7.32974C-0.0363704 7.86873 -0.0371476 8.44944 0.137008 8.98891C0.311164 9.52837 0.651345 9.999 1.10896 10.3336H1.10563Z" fill="#34C759"/>
</g>
<defs>
<clipPath id="clip0_40_305">
<rect width="20" height="20" fill="white"/>
</clipPath>
</defs>
</svg>
