<svg width="20" height="20" viewBox="0 0 20 20" fill="none" xmlns="http://www.w3.org/2000/svg">
<g clip-path="url(#clip0_257_1286)">
<path d="M10 11.6664C9.33696 11.6664 8.70107 11.9298 8.23223 12.3986C7.76339 12.8675 7.5 13.5034 7.5 14.1664V20.0214H12.5V14.1664C12.5 13.5034 12.2366 12.8675 11.7678 12.3986C11.2989 11.9298 10.663 11.6664 10 11.6664Z" fill="#34C759"/>
<path d="M11.115 0.694253C10.809 0.418784 10.4118 0.266357 10 0.266357C9.58824 0.266357 9.19105 0.418784 8.885 0.694253L0 8.69092V17.3576C0 18.0648 0.280952 18.7431 0.781049 19.2432C1.28115 19.7433 1.95942 20.0243 2.66667 20.0243H5.83333V14.1668C5.83333 13.0617 6.27232 12.0019 7.05372 11.2205C7.83512 10.4391 8.89493 10.0001 10 10.0001C11.1051 10.0001 12.1649 10.4391 12.9463 11.2205C13.7277 12.0019 14.1667 13.0617 14.1667 14.1668V20.0218H17.3333C18.0406 20.0218 18.7189 19.7408 19.219 19.2407C19.719 18.7406 20 18.0623 20 17.3551V8.68842L11.115 0.694253Z" fill="#34C759"/>
</g>
<defs>
<clipPath id="clip0_257_1286">
<rect width="20" height="20" fill="white"/>
</clipPath>
</defs>
</svg>
