<svg width="18" height="18" viewBox="0 0 18 18" fill="none" xmlns="http://www.w3.org/2000/svg">
<g clip-path="url(#clip0_93_826)">
<path d="M11.2496 17.9998C9.98925 17.9989 8.74308 17.7337 7.59154 17.2213C6.44 16.709 5.40867 15.9609 4.56413 15.0253C3.7132 14.0887 3.07119 12.9818 2.68069 11.7781C2.29018 10.5744 2.16012 9.30138 2.29913 8.04357C2.52323 6.08608 3.37717 4.25437 4.7324 2.82421C6.08762 1.39405 7.87077 0.44285 9.81338 0.113821C11.0692 -0.0801479 12.3508 -0.0279277 13.5866 0.267571C13.9102 0.350715 14.2058 0.518824 14.4426 0.754502C14.6794 0.99018 14.849 1.28486 14.9337 1.60806C15.0185 1.93126 15.0153 2.27123 14.9246 2.5928C14.8338 2.91437 14.6588 3.20584 14.4176 3.43707C10.9976 6.56157 11.2946 11.4201 15.0229 14.2446C15.2865 14.4515 15.4898 14.7252 15.6117 15.0374C15.7337 15.3495 15.7697 15.6886 15.7161 16.0194C15.6625 16.3502 15.5212 16.6606 15.307 16.9183C15.0927 17.176 14.8133 17.3715 14.4979 17.4846C13.4492 17.8272 12.3528 18.0011 11.2496 17.9998Z" fill="#232837"/>
</g>
<defs>
<clipPath id="clip0_93_826">
<rect width="18" height="18" fill="white"/>
</clipPath>
</defs>
</svg>
